<svg width="292" height="18" viewBox="0 0 292 18" fill="none" xmlns="http://www.w3.org/2000/svg">
<path d="M1 14.4775L7.06111 15.1928L10.0728 14.4775L13.461 15.1928L16.021 14.4775L19.0327 12.2564L21.3668 9.95995L24.6045 8.07762H26.3738L28.2185 9.95995L30.7785 12.2564L32.9997 15.1928L35.8984 16.4728L38.7972 16.4728L41.5831 15.1928H44.8584L49.0371 14.4775L51.9359 13.6493H55.7759L59.9547 12.8587L63.3429 9.95995H65.3005L66.5805 8.90584L68.3499 7.02351L70.684 5.89411L72.4157 4.01178L74.5239 2.95767L76.1427 2.46827L78.1003 4.01178L79.7568 5.89411L81.5638 7.02351C81.8023 7.65096 82.377 8.90584 82.7685 8.90584C83.1601 8.90584 84.1615 9.60858 84.6132 9.95995C84.9269 9.95995 85.6372 9.95995 85.9685 9.95995C86.2998 9.95995 87.763 9.55839 88.4532 9.3576H89.6955L91.992 7.88938L93.6108 8.2282L97.2249 5.89411L100.048 4.01178L101.931 1.90357L103.851 2.95767L104.528 4.01178L105.658 2.46827L106.862 1.5271L108.331 2.46827L110.401 4.01178L111.154 4.80236L112.66 5.44235L113.375 6.64704L116.387 7.02351L117.893 5.14118L120.679 2.95767L122.26 3.56002L124.067 4.01178L125.535 5.14118L126.589 5.14118L128.509 6.64704L130.015 7.43762L131.86 9.3576L133.215 9.95995L134.608 12.2564L136.716 13.2729L139.615 12.8587L142.627 9.95995L145.413 6.64704L147.22 6.27058L149.704 7.02351L151.022 6.64704L152.076 7.02351L155.351 6.27058L157.008 6.64704L158.777 6.27058H160.17L161.412 5.89411L164.198 5.89411L165.855 7.02351L166.834 8.2282L168.603 7.02351L170.372 6.27058L174.4 1.90357L176.433 2.46827L177.826 3.56002L180.085 4.80236L180.725 5.89411L181.855 6.27058L182.306 6.64704H183.812L185.017 7.43762L186.899 9.3576H189.045L191.266 9.95995L193.525 10.2988L196.574 11.5035L197.892 11.8799L198.833 11.5035L199.511 11.8799L201.92 12.2564L202.598 13.2729C203.2 13.3983 204.465 13.6493 204.706 13.6493C204.947 13.6493 206.112 13.9756 206.664 14.1387H207.831L210.541 12.2564L212.461 11.5035L213.892 10.9388L216.489 10.2988L219.125 11.5035H220.856L221.609 12.2564L223.567 11.5035L225.261 9.3576H226.315L228.235 7.43762L230.946 6.27058L232.075 7.02351L233.468 7.88938L235.463 8.90584L237.308 10.2988H239.077L239.83 11.8799L241.073 12.2564H243.181L244.16 10.9388L246.117 8.2282L247.661 6.64704L248.979 6.27058L250.033 5.89411L251.689 6.64704L252.894 8.2282H254.851L256.809 9.3576L259.181 12.8587H261.289L264.489 11.8799L267.651 10.9388L268.592 11.5035L270.55 9.95995L271.303 8.90584L272.056 9.3576L273.261 10.9388L276.461 9.95995L278.305 8.2282L279.359 7.43762L282.333 9.3576L283.613 10.9388L285.232 11.8799L286.813 12.8587L288.846 14.1387L290.089 14.4775H290.955" stroke="#D70A2C" stroke-width="2" stroke-linecap="round"/>
</svg>
